<?xml version="1.0" encoding="utf-8"?>
<!-- Generator: Adobe Illustrator 22.0.0, SVG Export Plug-In . SVG Version: 6.00 Build 0)  -->
<svg version="1.1" xmlns="http://www.w3.org/2000/svg" xmlns:xlink="http://www.w3.org/1999/xlink" x="0px" y="0px"
	 viewBox="0 0 500 500" style="enable-background:new 0 0 500 500;" xml:space="preserve">
<style type="text/css">
	.st0{fill:#FF0000;}
	.st1{fill:#FFFFFF;}
</style>
<g id="Livello_1">
	<rect class="st0" width="500" height="500"/>
</g>
<g id="Livello_2">
	<g>
		<circle class="st0" cx="249.5" cy="250.5" r="166.5"/>
		<path class="st1" d="M249.5,96c41.3,0,80.1,16.1,109.2,45.3c29.2,29.2,45.3,68,45.3,109.2s-16.1,80.1-45.3,109.2
			c-29.2,29.2-68,45.3-109.2,45.3s-80.1-16.1-109.2-45.3c-29.2-29.2-45.3-68-45.3-109.2s16.1-80.1,45.3-109.2S208.2,96,249.5,96
			 M249.5,72C150.9,72,71,151.9,71,250.5S150.9,429,249.5,429S428,349.1,428,250.5S348.1,72,249.5,72L249.5,72z"/>
	</g>
	<path class="st1" d="M422.8,452.3l-40-40c-4.7-4.7-4.7-12.3,0-17l13.1-13.1c4.7-4.7,12.3-4.7,17,0l40,40c4.7,4.7,4.7,12.3,0,17
		l-13.1,13.1C435.1,456.9,427.4,456.9,422.8,452.3z"/>
</g>
<g id="Livello_3">
	<path class="st1" d="M251.3,315.2c10.2,0,22.4,4.1,22.4,4.1c42.8-26.5,34.6-61.1,20.4-87.6s-14.3-63.1-14.3-63.1
		c-8.1,8.1-8.1,18.3-8.1,18.3c-12.2-20.4-5.1-47.9-5.1-47.9s-34.6,2-59.1,50.9s-10.2,105.9,20.4,128.3
		C227.9,318.2,241.1,315.2,251.3,315.2"/>
	<path class="st1" d="M250.3,325.2"/>
	<path class="st1" d="M275.7,362c0-28.5-8.1-32.6-8.1-32.6c-14.3-8.1-30.5-4.1-36.7,0s-8.1,32.6-8.1,32.6H275.7z"/>
</g>
</svg>
